<?xml version="1.0" encoding="UTF-8"?>
<svg xmlns="http://www.w3.org/2000/svg" viewBox="-10 -10 474 432" width="474" height="432">
    <style>
        text {
            font-family: 'Source Code Pro', monospace;
            font-size: 14px;
            white-space: pre;
        }
        svg {
            background: #0f0f23;
        }
    </style>
    <rect width="100%" height="100%" fill="#0f0f23"/>
    <text x="80" y="12" fill="#ffffff">.-----.</text>
    <text x="216" y="12" fill="#ffffff">.------------------.</text>
    <text x="56" y="28" fill="#ccc">.--'</text>
    <text x="88" y="28" fill="#e3b585">~</text>
    <text x="104" y="28" fill="#e3b585">~</text>
    <text x="120" y="28" fill="#e3b585">~</text>
    <text x="128" y="28" fill="#ccc">|</text>
    <text x="200" y="28" fill="#ccc">.-'</text>
    <text x="232" y="28" fill="#ffff66">*</text>
    <text x="296" y="28" fill="#886655">\</text>
    <text x="320" y="28" fill="#886655">/</text>
    <text x="368" y="28" fill="#ccc">'-.</text>
    <text x="416" y="28" fill="#ccc">1</text>
    <text x="432" y="28" fill="#ffff66">**</text>
    <text x="32" y="44" fill="#ccc">.--'</text>
    <text x="64" y="44" fill="#e3b585">~</text>
    <text x="88" y="44" fill="#00cc00">,</text>
    <text x="96" y="44" fill="#ffff66">*</text>
    <text x="112" y="44" fill="#e3b585">~</text>
    <text x="128" y="44" fill="#ccc">|</text>
    <text x="200" y="44" fill="#ccc">|</text>
    <text x="224" y="44" fill="#009900">&gt;</text>
    <text x="232" y="44" fill="#ff9900">o</text>
    <text x="240" y="44" fill="#009900">&lt;</text>
    <text x="272" y="44" fill="#886655">\_\_\|_/__/</text>
    <text x="384" y="44" fill="#ccc">|</text>
    <text x="416" y="44" fill="#ccc">2</text>
    <text x="432" y="44" fill="#ffff66">**</text>
    <text x="0" y="60" fill="#ccc">.---'</text>
    <text x="40" y="60" fill="#e3b585">:</text>
    <text x="56" y="60" fill="#e3b585">~</text>
    <text x="72" y="60" fill="#00cc00">'</text>
    <text x="80" y="60" fill="#5555bb">(~)</text>
    <text x="104" y="60" fill="#00cc00">,</text>
    <text x="120" y="60" fill="#e3b585">~</text>
    <text x="128" y="60" fill="#ccc">|</text>
    <text x="200" y="60" fill="#ccc">|</text>
    <text x="216" y="60" fill="#009900">&gt;</text>
    <text x="224" y="60" fill="#ff0000">@</text>
    <text x="232" y="60" fill="#009900">&gt;</text>
    <text x="240" y="60" fill="#0066ff">O</text>
    <text x="248" y="60" fill="#009900">&lt;</text>
    <text x="264" y="60" fill="#ff0000">o</text>
    <text x="272" y="60" fill="#886655">-_/</text>
    <text x="296" y="60" fill="#cccccc">.()</text>
    <text x="320" y="60" fill="#886655">__------</text>
    <text x="384" y="60" fill="#ccc">|</text>
    <text x="416" y="60" fill="#ccc">3</text>
    <text x="432" y="60" fill="#ffff66">**</text>
    <text x="0" y="76" fill="#ccc">|</text>
    <text x="8" y="76" fill="#4d8b03">@</text>
    <text x="16" y="76" fill="#5eabb4">..</text>
    <text x="32" y="76" fill="#7fbd39">#</text>
    <text x="40" y="76" fill="#e3b585">'.</text>
    <text x="64" y="76" fill="#e3b585">~</text>
    <text x="80" y="76" fill="#00cc00">&quot;</text>
    <text x="96" y="76" fill="#00cc00">'</text>
    <text x="112" y="76" fill="#e3b585">~</text>
    <text x="128" y="76" fill="#ccc">|</text>
    <text x="200" y="76" fill="#ccc">|</text>
    <text x="208" y="76" fill="#009900">&gt;</text>
    <text x="216" y="76" fill="#0066ff">O</text>
    <text x="224" y="76" fill="#009900">&gt;</text>
    <text x="232" y="76" fill="#ff9900">o</text>
    <text x="240" y="76" fill="#009900">&lt;</text>
    <text x="248" y="76" fill="#ff0000">@</text>
    <text x="256" y="76" fill="#009900">&lt;</text>
    <text x="272" y="76" fill="#886655">\____</text>
    <text x="368" y="76" fill="#00cc00">.'</text>
    <text x="384" y="76" fill="#ccc">|</text>
    <text x="416" y="76" fill="#ccc">4</text>
    <text x="432" y="76" fill="#ffff66">**</text>
    <text x="0" y="92" fill="#ccc">|</text>
    <text x="8" y="92" fill="#7fbd39">_</text>
    <text x="16" y="92" fill="#5eabb4">.~.</text>
    <text x="40" y="92" fill="#488813">_</text>
    <text x="48" y="92" fill="#427322">#</text>
    <text x="56" y="92" fill="#e3b585">'..</text>
    <text x="88" y="92" fill="#e3b585">~</text>
    <text x="104" y="92" fill="#e3b585">~</text>
    <text x="120" y="92" fill="#ffff66">*</text>
    <text x="128" y="92" fill="#ccc">|</text>
    <text x="200" y="92" fill="#ccc">|</text>
    <text x="216" y="92" fill="#aaaaaa">_|</text>
    <text x="240" y="92" fill="#aaaaaa">|_</text>
    <text x="288" y="92" fill="#ccc">..</text>
    <text x="304" y="92" fill="#cccccc">\_</text>
    <text x="320" y="92" fill="#886655">\_</text>
    <text x="344" y="92" fill="#00cc00">..'</text>
    <text x="368" y="92" fill="#ffff66">*</text>
    <text x="384" y="92" fill="#ccc">|</text>
    <text x="416" y="92" fill="#ccc">5</text>
    <text x="432" y="92" fill="#ffff66">**</text>
    <text x="0" y="108" fill="#ccc">|</text>
    <text x="16" y="108" fill="#ffffff">|||</text>
    <text x="48" y="108" fill="#4d8b03">@</text>
    <text x="64" y="108" fill="#427322">#</text>
    <text x="72" y="108" fill="#4d8b03">@</text>
    <text x="80" y="108" fill="#e3b585">'''...</text>
    <text x="128" y="108" fill="#ccc">|</text>
    <text x="200" y="108" fill="#ccc">|</text>
    <text x="208" y="108" fill="#a25151">...</text>
    <text x="272" y="108" fill="#ccc">.'</text>
    <text x="304" y="108" fill="#ccc">'.</text>
    <text x="320" y="108" fill="#00cc00">'''..</text>
    <text x="360" y="108" fill="#d4dde4">/</text>
    <text x="368" y="108" fill="#00cc00">..</text>
    <text x="384" y="108" fill="#ccc">|</text>
    <text x="416" y="108" fill="#ccc">6</text>
    <text x="432" y="108" fill="#ffff66">**</text>
    <text x="0" y="124" fill="#ccc">|</text>
    <text x="8" y="124" fill="#4d8b03">@</text>
    <text x="16" y="124" fill="#ffffff">~~~</text>
    <text x="40" y="124" fill="#427322">@@</text>
    <text x="56" y="124" fill="#488813">@#</text>
    <text x="72" y="124" fill="#427322">@</text>
    <text x="88" y="124" fill="#427322">@</text>
    <text x="128" y="124" fill="#ccc">|</text>
    <text x="200" y="124" fill="#ccc">|</text>
    <text x="208" y="124" fill="#a5a8af">/\</text>
    <text x="232" y="124" fill="#a25151">''.</text>
    <text x="272" y="124" fill="#ccc">|</text>
    <text x="312" y="124" fill="#ccc">|</text>
    <text x="344" y="124" fill="#ccccff">-</text>
    <text x="352" y="124" fill="#d4dde4">/</text>
    <text x="376" y="124" fill="#ffffff">:</text>
    <text x="384" y="124" fill="#ccc">|</text>
    <text x="416" y="124" fill="#ccc">7</text>
    <text x="432" y="124" fill="#ffff66">**</text>
    <text x="0" y="140" fill="#ccc">|</text>
    <text x="8" y="140" fill="#5eabb4">~~.</text>
    <text x="32" y="140" fill="#ccc">.--.</text>
    <text x="72" y="140" fill="#ccc">_____</text>
    <text x="128" y="140" fill="#ccc">|</text>
    <text x="200" y="140" fill="#ccc">|</text>
    <text x="208" y="140" fill="#ffff66">*</text>
    <text x="224" y="140" fill="#a5a8af">/</text>
    <text x="232" y="140" fill="#df2308">~</text>
    <text x="240" y="140" fill="#a5a8af">\</text>
    <text x="256" y="140" fill="#a25151">'.</text>
    <text x="272" y="140" fill="#ccc">|</text>
    <text x="312" y="140" fill="#ccc">|</text>
    <text x="328" y="140" fill="#ccccff">-</text>
    <text x="344" y="140" fill="#d4dde4">/</text>
    <text x="368" y="140" fill="#ffffff">.'</text>
    <text x="384" y="140" fill="#ccc">|</text>
    <text x="416" y="140" fill="#ccc">8</text>
    <text x="432" y="140" fill="#ffff66">**</text>
    <text x="0" y="156" fill="#ccc">'---'</text>
    <text x="56" y="156" fill="#ccc">||[][]_\-|</text>
    <text x="200" y="156" fill="#ccc">|</text>
    <text x="208" y="156" fill="#df2308">~</text>
    <text x="216" y="156" fill="#a5a8af">/</text>
    <text x="232" y="156" fill="#ffff66">*</text>
    <text x="248" y="156" fill="#a5a8af">\</text>
    <text x="264" y="156" fill="#a25151">:</text>
    <text x="272" y="156" fill="#ccc">|</text>
    <text x="312" y="156" fill="#ccc">|</text>
    <text x="336" y="156" fill="#ffff66">*</text>
    <text x="344" y="156" fill="#ffffff">..'</text>
    <text x="384" y="156" fill="#ccc">|</text>
    <text x="416" y="156" fill="#ccc">9</text>
    <text x="432" y="156" fill="#ffff66">**</text>
    <text x="56" y="172" fill="#ccc">|-------</text>
    <text x="128" y="172" fill="#ccc">|</text>
    <text x="200" y="172" fill="#ccc">|</text>
    <text x="232" y="172" fill="#a5a8af">/\</text>
    <text x="256" y="172" fill="#a25151">.'</text>
    <text x="272" y="172" fill="#ccc">|</text>
    <text x="312" y="172" fill="#ccc">|</text>
    <text x="320" y="172" fill="#ffffff">'''</text>
    <text x="344" y="172" fill="#00c8ff">~~~~~</text>
    <text x="384" y="172" fill="#ccc">|</text>
    <text x="408" y="172" fill="#ccc">10</text>
    <text x="432" y="172" fill="#ffff66">**</text>
    <text x="56" y="188" fill="#333333">|</text>
    <text x="128" y="188" fill="#333333">|</text>
    <text x="200" y="188" fill="#333333">|</text>
    <text x="272" y="188" fill="#333333">|</text>
    <text x="312" y="188" fill="#333333">|</text>
    <text x="384" y="188" fill="#333333">|</text>
    <text x="408" y="188" fill="#333333">11</text>
    <text x="408" y="204" fill="#333333">12</text>
    <text x="408" y="220" fill="#333333">13</text>
    <text x="408" y="236" fill="#333333">14</text>
    <text x="408" y="252" fill="#333333">15</text>
    <text x="408" y="268" fill="#333333">16</text>
    <text x="408" y="284" fill="#333333">17</text>
    <text x="408" y="300" fill="#333333">18</text>
    <text x="408" y="316" fill="#333333">19</text>
    <text x="408" y="332" fill="#333333">20</text>
    <text x="408" y="348" fill="#333333">21</text>
    <text x="408" y="364" fill="#333333">22</text>
    <text x="408" y="380" fill="#333333">23</text>
    <text x="408" y="396" fill="#333333">24</text>
    <text x="408" y="412" fill="#333333">25</text>
</svg>