<?xml version="1.0" encoding="UTF-8"?>
<svg xmlns="http://www.w3.org/2000/svg" viewBox="-10 -10 474 400" width="474" height="400">
    <style>
        text {
            font-family: 'Source Code Pro', monospace;
            font-size: 14px;
            white-space: pre;
        }
        svg {
            background: #0f0f23;
        }
    </style>
    <rect width="100%" height="100%" fill="#0f0f23"/>
    <text x="48" y="12" fill="#fff">.</text>
    <text x="72" y="12" fill="#fff">____</text>
    <text x="112" y="12" fill="#fff">.</text>
    <text x="168" y="12" fill="#fff">''</text>
    <text x="192" y="12" fill="#ff6">*</text>
    <text x="208" y="12" fill="#fff">..</text>
    <text x="256" y="12" fill="#fff">'.</text>
    <text x="304" y="12" fill="#fff">..</text>
    <text x="328" y="12" fill="#f90">&lt;</text>
    <text x="336" y="12" fill="#fff">o</text>
    <text x="376" y="12" fill="#fff">'.</text>
    <text x="0" y="28" fill="#fff">________/</text>
    <text x="72" y="28" fill="#999">O___</text>
    <text x="104" y="28" fill="#fff">\__________</text>
    <text x="192" y="28" fill="#f00">|</text>
    <text x="200" y="28" fill="#fff">_________________O______</text>
    <text x="416" y="28" fill="#fff">1</text>
    <text x="432" y="28" fill="#fff">**</text>
    <text x="24" y="44" fill="#333333">_______||_________</text>
    <text x="24" y="60" fill="#ffffff">|</text>
    <text x="40" y="60" fill="#ffffff">_@__</text>
    <text x="80" y="60" fill="#ffffff">||</text>
    <text x="104" y="60" fill="#ffffff">_o_</text>
    <text x="160" y="60" fill="#ffffff">|</text>
    <text x="416" y="60" fill="#ffffff">2</text>
    <text x="24" y="76" fill="#333333">|_&amp;_%__||_oo__^=_[</text>
    <text x="416" y="92" fill="#ffffff">3</text>
    <text x="416" y="124" fill="#ffffff">4</text>
    <text x="416" y="156" fill="#ffffff">5</text>
    <text x="416" y="188" fill="#ffffff">6</text>
    <text x="416" y="220" fill="#ffffff">7</text>
    <text x="416" y="252" fill="#ffffff">8</text>
    <text x="416" y="284" fill="#ffffff">9</text>
    <text x="408" y="316" fill="#ffffff">10</text>
    <text x="408" y="348" fill="#ffffff">11</text>
    <text x="408" y="380" fill="#ffffff">12</text>
</svg>